<mxfile host="app.diagrams.net" modified="2020-12-03T17:00:22.955Z" agent="5.0 (Windows NT 10.0; Win64; x64) AppleWebKit/537.36 (KHTML, like Gecko) Chrome/86.0.4240.185 YaBrowser/20.11.2.78 Yowser/2.5 Safari/537.36" etag="_mM2aColtTyUO2q0HgJk" version="13.10.6" type="github">
  <diagram id="zc4o0UcSgLEa80-0MHp_" name="Page-1">
    <mxGraphModel dx="2370" dy="1315" grid="1" gridSize="10" guides="1" tooltips="1" connect="1" arrows="1" fold="1" page="1" pageScale="1" pageWidth="827" pageHeight="1169" math="0" shadow="0">
      <root>
        <mxCell id="0" />
        <mxCell id="1" parent="0" />
        <mxCell id="7BAnUV4aGsc6vh2q3_BH-3" value="" style="edgeStyle=orthogonalEdgeStyle;rounded=0;orthogonalLoop=1;jettySize=auto;html=1;" parent="1" source="7BAnUV4aGsc6vh2q3_BH-1" edge="1">
          <mxGeometry relative="1" as="geometry">
            <mxPoint x="400" y="140" as="targetPoint" />
          </mxGeometry>
        </mxCell>
        <mxCell id="7BAnUV4aGsc6vh2q3_BH-1" value="старт" style="rounded=1;whiteSpace=wrap;html=1;" parent="1" vertex="1">
          <mxGeometry x="340" y="40" width="120" height="60" as="geometry" />
        </mxCell>
        <mxCell id="7BAnUV4aGsc6vh2q3_BH-7" value="" style="edgeStyle=orthogonalEdgeStyle;rounded=0;orthogonalLoop=1;jettySize=auto;html=1;entryX=0.5;entryY=0;entryDx=0;entryDy=0;" parent="1" source="7BAnUV4aGsc6vh2q3_BH-5" target="N0NN292NTjZcQYEDl7P6-1" edge="1">
          <mxGeometry relative="1" as="geometry">
            <mxPoint x="400" y="250" as="targetPoint" />
            <Array as="points" />
          </mxGeometry>
        </mxCell>
        <mxCell id="7BAnUV4aGsc6vh2q3_BH-5" value="&lt;font style=&quot;font-size: 11px&quot;&gt;Ввод начала времени&lt;br&gt;поездки&lt;/font&gt;" style="shape=parallelogram;perimeter=parallelogramPerimeter;whiteSpace=wrap;html=1;fixedSize=1;" parent="1" vertex="1">
          <mxGeometry x="325" y="140" width="150" height="60" as="geometry" />
        </mxCell>
        <mxCell id="7BAnUV4aGsc6vh2q3_BH-9" value="" style="edgeStyle=orthogonalEdgeStyle;rounded=0;orthogonalLoop=1;jettySize=auto;html=1;" parent="1" source="7BAnUV4aGsc6vh2q3_BH-6" target="7BAnUV4aGsc6vh2q3_BH-8" edge="1">
          <mxGeometry relative="1" as="geometry" />
        </mxCell>
        <mxCell id="7BAnUV4aGsc6vh2q3_BH-11" value="" style="edgeStyle=orthogonalEdgeStyle;rounded=0;orthogonalLoop=1;jettySize=auto;html=1;exitX=0.5;exitY=1;exitDx=0;exitDy=0;entryX=0.5;entryY=0;entryDx=0;entryDy=0;" parent="1" source="7BAnUV4aGsc6vh2q3_BH-6" edge="1" target="7BAnUV4aGsc6vh2q3_BH-10">
          <mxGeometry relative="1" as="geometry">
            <mxPoint x="390" y="875" as="sourcePoint" />
            <mxPoint x="400" y="590" as="targetPoint" />
            <Array as="points" />
          </mxGeometry>
        </mxCell>
        <mxCell id="7BAnUV4aGsc6vh2q3_BH-6" value="входит &lt;br&gt;в промежуток 22:01 - 08:00?" style="rhombus;whiteSpace=wrap;html=1;" parent="1" vertex="1">
          <mxGeometry x="340" y="430" width="120" height="110" as="geometry" />
        </mxCell>
        <mxCell id="7BAnUV4aGsc6vh2q3_BH-8" value="Скорость 50 км/ч" style="shape=parallelogram;perimeter=parallelogramPerimeter;whiteSpace=wrap;html=1;fixedSize=1;size=-10;" parent="1" vertex="1">
          <mxGeometry x="520" y="455" width="130" height="60" as="geometry" />
        </mxCell>
        <mxCell id="7BAnUV4aGsc6vh2q3_BH-16" value="" style="edgeStyle=orthogonalEdgeStyle;rounded=0;orthogonalLoop=1;jettySize=auto;html=1;" parent="1" source="7BAnUV4aGsc6vh2q3_BH-10" target="7BAnUV4aGsc6vh2q3_BH-15" edge="1">
          <mxGeometry relative="1" as="geometry" />
        </mxCell>
        <mxCell id="7BAnUV4aGsc6vh2q3_BH-10" value="входит &lt;br&gt;в промежуток 08:01-12:00?" style="rhombus;whiteSpace=wrap;html=1;" parent="1" vertex="1">
          <mxGeometry x="340" y="605" width="120" height="110" as="geometry" />
        </mxCell>
        <mxCell id="7BAnUV4aGsc6vh2q3_BH-12" value="да" style="text;html=1;align=center;verticalAlign=middle;resizable=0;points=[];autosize=1;" parent="1" vertex="1">
          <mxGeometry x="470" y="470" width="30" height="20" as="geometry" />
        </mxCell>
        <mxCell id="7BAnUV4aGsc6vh2q3_BH-39" style="edgeStyle=orthogonalEdgeStyle;rounded=0;orthogonalLoop=1;jettySize=auto;html=1;exitX=1;exitY=0.5;exitDx=0;exitDy=0;entryX=1;entryY=0.25;entryDx=0;entryDy=0;" parent="1" source="7BAnUV4aGsc6vh2q3_BH-15" target="7BAnUV4aGsc6vh2q3_BH-31" edge="1">
          <mxGeometry relative="1" as="geometry">
            <mxPoint x="670" y="1245" as="targetPoint" />
            <Array as="points">
              <mxPoint x="680" y="660" />
              <mxPoint x="680" y="1205" />
            </Array>
          </mxGeometry>
        </mxCell>
        <mxCell id="7BAnUV4aGsc6vh2q3_BH-15" value="скорость 35 км/ч" style="shape=parallelogram;perimeter=parallelogramPerimeter;whiteSpace=wrap;html=1;fixedSize=1;size=0;" parent="1" vertex="1">
          <mxGeometry x="520" y="630" width="120" height="60" as="geometry" />
        </mxCell>
        <mxCell id="7BAnUV4aGsc6vh2q3_BH-22" value="" style="edgeStyle=orthogonalEdgeStyle;rounded=0;orthogonalLoop=1;jettySize=auto;html=1;" parent="1" source="7BAnUV4aGsc6vh2q3_BH-17" target="7BAnUV4aGsc6vh2q3_BH-21" edge="1">
          <mxGeometry relative="1" as="geometry" />
        </mxCell>
        <mxCell id="7BAnUV4aGsc6vh2q3_BH-24" value="" style="edgeStyle=orthogonalEdgeStyle;rounded=0;orthogonalLoop=1;jettySize=auto;html=1;entryX=0;entryY=0.5;entryDx=0;entryDy=0;" parent="1" source="7BAnUV4aGsc6vh2q3_BH-17" target="7BAnUV4aGsc6vh2q3_BH-23" edge="1">
          <mxGeometry relative="1" as="geometry">
            <mxPoint x="510" y="825" as="targetPoint" />
            <Array as="points" />
          </mxGeometry>
        </mxCell>
        <mxCell id="7BAnUV4aGsc6vh2q3_BH-17" value="входит &lt;br&gt;в промежуток 12:01-18:00?" style="rhombus;whiteSpace=wrap;html=1;" parent="1" vertex="1">
          <mxGeometry x="340" y="770" width="120" height="110" as="geometry" />
        </mxCell>
        <mxCell id="7BAnUV4aGsc6vh2q3_BH-30" value="" style="edgeStyle=orthogonalEdgeStyle;rounded=0;orthogonalLoop=1;jettySize=auto;html=1;" parent="1" source="7BAnUV4aGsc6vh2q3_BH-21" edge="1">
          <mxGeometry relative="1" as="geometry">
            <mxPoint x="400" y="1090" as="targetPoint" />
          </mxGeometry>
        </mxCell>
        <mxCell id="7BAnUV4aGsc6vh2q3_BH-21" value="&lt;span&gt;входит&lt;br&gt;в промежуток 18:01-22:00?&lt;/span&gt;" style="rhombus;whiteSpace=wrap;html=1;" parent="1" vertex="1">
          <mxGeometry x="340" y="920" width="120" height="115" as="geometry" />
        </mxCell>
        <mxCell id="7BAnUV4aGsc6vh2q3_BH-23" value="скорость 42 км/ч" style="shape=parallelogram;perimeter=parallelogramPerimeter;whiteSpace=wrap;html=1;fixedSize=1;size=0;" parent="1" vertex="1">
          <mxGeometry x="520" y="795" width="120" height="60" as="geometry" />
        </mxCell>
        <mxCell id="7BAnUV4aGsc6vh2q3_BH-32" value="" style="edgeStyle=orthogonalEdgeStyle;rounded=0;orthogonalLoop=1;jettySize=auto;html=1;" parent="1" source="7BAnUV4aGsc6vh2q3_BH-29" edge="1">
          <mxGeometry relative="1" as="geometry">
            <mxPoint x="400" y="1190" as="targetPoint" />
          </mxGeometry>
        </mxCell>
        <mxCell id="7BAnUV4aGsc6vh2q3_BH-29" value="скорость 30 км/ч" style="shape=parallelogram;perimeter=parallelogramPerimeter;whiteSpace=wrap;html=1;fixedSize=1;size=0;" parent="1" vertex="1">
          <mxGeometry x="340" y="1090" width="120" height="60" as="geometry" />
        </mxCell>
        <mxCell id="7BAnUV4aGsc6vh2q3_BH-31" value="конец" style="rounded=1;whiteSpace=wrap;html=1;" parent="1" vertex="1">
          <mxGeometry x="340" y="1190" width="120" height="60" as="geometry" />
        </mxCell>
        <mxCell id="7BAnUV4aGsc6vh2q3_BH-34" value="да" style="text;html=1;align=center;verticalAlign=middle;resizable=0;points=[];autosize=1;" parent="1" vertex="1">
          <mxGeometry x="460" y="645" width="30" height="20" as="geometry" />
        </mxCell>
        <mxCell id="7BAnUV4aGsc6vh2q3_BH-35" value="да" style="text;html=1;align=center;verticalAlign=middle;resizable=0;points=[];autosize=1;" parent="1" vertex="1">
          <mxGeometry x="385" y="1050" width="30" height="20" as="geometry" />
        </mxCell>
        <mxCell id="7BAnUV4aGsc6vh2q3_BH-36" value="да" style="text;html=1;align=center;verticalAlign=middle;resizable=0;points=[];autosize=1;" parent="1" vertex="1">
          <mxGeometry x="470" y="810" width="30" height="20" as="geometry" />
        </mxCell>
        <mxCell id="7BAnUV4aGsc6vh2q3_BH-37" value="" style="endArrow=classic;html=1;entryX=1;entryY=0.5;entryDx=0;entryDy=0;exitX=1;exitY=0.5;exitDx=0;exitDy=0;" parent="1" target="7BAnUV4aGsc6vh2q3_BH-31" edge="1" source="7BAnUV4aGsc6vh2q3_BH-8">
          <mxGeometry width="50" height="50" relative="1" as="geometry">
            <mxPoint x="630" y="515" as="sourcePoint" />
            <mxPoint x="700" y="515" as="targetPoint" />
            <Array as="points">
              <mxPoint x="690" y="485" />
              <mxPoint x="690" y="515" />
              <mxPoint x="690" y="1220" />
            </Array>
          </mxGeometry>
        </mxCell>
        <mxCell id="7BAnUV4aGsc6vh2q3_BH-40" value="нет" style="text;html=1;align=center;verticalAlign=middle;resizable=0;points=[];autosize=1;" parent="1" vertex="1">
          <mxGeometry x="385" y="890" width="30" height="20" as="geometry" />
        </mxCell>
        <mxCell id="N0NN292NTjZcQYEDl7P6-14" value="" style="edgeStyle=orthogonalEdgeStyle;rounded=0;orthogonalLoop=1;jettySize=auto;html=1;exitX=0.5;exitY=1;exitDx=0;exitDy=0;" edge="1" parent="1" source="7BAnUV4aGsc6vh2q3_BH-41">
          <mxGeometry relative="1" as="geometry">
            <mxPoint x="400" y="770" as="targetPoint" />
          </mxGeometry>
        </mxCell>
        <mxCell id="N0NN292NTjZcQYEDl7P6-3" value="" style="edgeStyle=orthogonalEdgeStyle;rounded=0;orthogonalLoop=1;jettySize=auto;html=1;exitX=0.5;exitY=1;exitDx=0;exitDy=0;" edge="1" parent="1" source="N0NN292NTjZcQYEDl7P6-1" target="7BAnUV4aGsc6vh2q3_BH-6">
          <mxGeometry relative="1" as="geometry" />
        </mxCell>
        <mxCell id="N0NN292NTjZcQYEDl7P6-7" value="" style="edgeStyle=orthogonalEdgeStyle;rounded=0;orthogonalLoop=1;jettySize=auto;html=1;" edge="1" parent="1" source="N0NN292NTjZcQYEDl7P6-1" target="N0NN292NTjZcQYEDl7P6-6">
          <mxGeometry relative="1" as="geometry" />
        </mxCell>
        <mxCell id="N0NN292NTjZcQYEDl7P6-1" value="Время соответствует требованиям?" style="rhombus;whiteSpace=wrap;html=1;" vertex="1" parent="1">
          <mxGeometry x="345" y="250" width="110" height="110" as="geometry" />
        </mxCell>
        <mxCell id="N0NN292NTjZcQYEDl7P6-4" value="да" style="text;html=1;align=center;verticalAlign=middle;resizable=0;points=[];autosize=1;" vertex="1" parent="1">
          <mxGeometry x="385" y="390" width="30" height="20" as="geometry" />
        </mxCell>
        <mxCell id="N0NN292NTjZcQYEDl7P6-6" value="Ошибка &quot;Вы ввели некорректное время&quot;" style="whiteSpace=wrap;html=1;" vertex="1" parent="1">
          <mxGeometry x="530" y="275" width="120" height="60" as="geometry" />
        </mxCell>
        <mxCell id="N0NN292NTjZcQYEDl7P6-8" value="нет" style="text;html=1;align=center;verticalAlign=middle;resizable=0;points=[];autosize=1;" vertex="1" parent="1">
          <mxGeometry x="470" y="290" width="30" height="20" as="geometry" />
        </mxCell>
        <mxCell id="7BAnUV4aGsc6vh2q3_BH-41" value="нет" style="text;html=1;align=center;verticalAlign=middle;resizable=0;points=[];autosize=1;" parent="1" vertex="1">
          <mxGeometry x="384" y="730" width="30" height="20" as="geometry" />
        </mxCell>
        <mxCell id="N0NN292NTjZcQYEDl7P6-15" value="" style="edgeStyle=orthogonalEdgeStyle;rounded=0;orthogonalLoop=1;jettySize=auto;html=1;exitX=0.5;exitY=1;exitDx=0;exitDy=0;" edge="1" parent="1" source="7BAnUV4aGsc6vh2q3_BH-10" target="7BAnUV4aGsc6vh2q3_BH-41">
          <mxGeometry relative="1" as="geometry">
            <mxPoint x="400" y="715" as="sourcePoint" />
            <mxPoint x="400" y="770" as="targetPoint" />
          </mxGeometry>
        </mxCell>
        <mxCell id="N0NN292NTjZcQYEDl7P6-16" value="нет" style="text;html=1;align=center;verticalAlign=middle;resizable=0;points=[];autosize=1;" vertex="1" parent="1">
          <mxGeometry x="384" y="564.5" width="30" height="20" as="geometry" />
        </mxCell>
        <mxCell id="N0NN292NTjZcQYEDl7P6-17" value="" style="endArrow=classic;html=1;exitX=1;exitY=0.5;exitDx=0;exitDy=0;entryX=1;entryY=0.75;entryDx=0;entryDy=0;" edge="1" parent="1" source="N0NN292NTjZcQYEDl7P6-6" target="7BAnUV4aGsc6vh2q3_BH-31">
          <mxGeometry width="50" height="50" relative="1" as="geometry">
            <mxPoint x="660" y="310" as="sourcePoint" />
            <mxPoint x="710" y="1250" as="targetPoint" />
            <Array as="points">
              <mxPoint x="710" y="305" />
              <mxPoint x="710" y="1235" />
            </Array>
          </mxGeometry>
        </mxCell>
      </root>
    </mxGraphModel>
  </diagram>
</mxfile>
